<svg width="218.76298666451288" height="210.39375" viewBox="0 0 312.5 300.54465738223286" class="css-1j8o68f"><defs id="SvgjsDefs4552"></defs><g id="SvgjsG4553" featurekey="rootContainer" transform="matrix(1.5458205593681518,0,0,1.5458205593681518,0,0.000081634343600284)" fill="#ffffff"><path xmlns="http://www.w3.org/2000/svg" d="M190.928 68.017c-1.18-3.634-1.767-7.692-2.333-11.616-.951-6.579-1.934-13.382-5.736-18.607-3.844-5.281-10.032-8.315-16.016-11.25-3.54-1.736-7.2-3.53-10.248-5.749-2.996-2.18-5.795-5.08-8.502-7.885-4.653-4.821-9.465-9.807-15.772-11.855C126.3-.9 119.585.256 113.09 1.374c-3.973.684-8.082 1.391-12.011 1.391-3.929 0-8.037-.708-12.01-1.391C82.573.256 75.857-.901 69.837 1.055 63.53 3.103 58.719 8.088 54.065 12.91c-2.706 2.805-5.505 5.705-8.502 7.885-3.048 2.219-6.708 4.014-10.248 5.749-5.984 2.935-12.171 5.969-16.015 11.25-3.803 5.225-4.786 12.029-5.737 18.608-.566 3.924-1.153 7.982-2.333 11.615-1.119 3.445-2.903 6.794-4.791 10.34C3.273 84.299 0 90.442 0 97.212s3.273 12.914 6.438 18.855c1.889 3.546 3.673 6.896 4.791 10.34 1.18 3.633 1.767 7.691 2.333 11.615.951 6.58 1.934 13.383 5.737 18.608 3.844 5.281 10.031 8.316 16.016 11.25 3.54 1.736 7.2 3.53 10.248 5.749 2.996 2.18 5.795 5.081 8.502 7.885 4.653 4.822 9.465 9.807 15.772 11.855 2.361.767 4.828 1.055 7.347 1.055 3.906 0 7.937-.694 11.886-1.373 3.973-.685 8.082-1.392 12.01-1.392 3.929 0 8.038.707 12.011 1.392 6.494 1.118 13.21 2.273 19.231.318 6.308-2.048 11.12-7.034 15.773-11.855 2.706-2.805 5.505-5.704 8.5-7.884 3.048-2.218 6.708-4.014 10.248-5.749 5.984-2.934 12.172-5.969 16.016-11.25 3.802-5.225 4.786-12.028 5.736-18.607.566-3.924 1.153-7.982 2.333-11.616 1.119-3.444 2.902-6.793 4.792-10.339 3.165-5.941 6.438-12.085 6.438-18.856 0-6.771-3.273-12.915-6.438-18.856-1.89-3.547-3.673-6.896-4.792-10.34zm3.316 47.265c-1.839 3.453-3.742 7.024-4.906 10.608-1.224 3.77-1.821 7.899-2.397 11.893-.964 6.671-1.874 12.973-5.434 17.863-3.6 4.947-9.599 7.888-15.401 10.733-3.603 1.767-7.33 3.594-10.496 5.898-3.112 2.266-5.962 5.219-8.719 8.075-4.511 4.674-9.175 9.507-15.086 11.426-5.631 1.827-11.848.757-18.433-.376-4.041-.696-8.222-1.415-12.294-1.415-4.071 0-8.251.719-12.293 1.415-6.584 1.133-12.804 2.204-18.434.376-5.91-1.919-10.574-6.752-15.084-11.426-2.757-2.856-5.607-5.81-8.721-8.076-3.166-2.303-6.892-4.131-10.495-5.897-5.802-2.845-11.801-5.787-15.4-10.733-3.56-4.891-4.47-11.192-5.435-17.864-.577-3.993-1.173-8.122-2.398-11.892-1.164-3.585-3.066-7.156-4.906-10.61-3.068-5.76-6.242-11.716-6.242-18.069s3.173-12.309 6.242-18.069c1.84-3.454 3.743-7.025 4.906-10.609 1.224-3.77 1.82-7.899 2.398-11.892.964-6.672 1.875-12.973 5.435-17.864 3.6-4.946 9.599-7.888 15.399-10.733 3.604-1.767 7.33-3.594 10.496-5.899 3.113-2.266 5.964-5.219 8.721-8.076 4.511-4.673 9.174-9.506 15.084-11.425 2.194-.712 4.475-.984 6.834-.984 3.696 0 7.58.668 11.599 1.36 4.042.696 8.223 1.416 12.294 1.416 4.072 0 8.252-.72 12.295-1.416 6.582-1.133 12.802-2.204 18.432-.376 5.91 1.919 10.573 6.752 15.085 11.425 2.756 2.857 5.607 5.81 8.72 8.076 3.166 2.304 6.893 4.131 10.496 5.898 5.802 2.845 11.8 5.787 15.401 10.733 3.559 4.891 4.469 11.192 5.434 17.863.577 3.993 1.174 8.123 2.397 11.893 1.164 3.584 3.067 7.155 4.906 10.608 3.069 5.761 6.242 11.717 6.242 18.071.001 6.354-3.173 12.311-6.242 18.071z"></path></g><g id="SvgjsG4554" featurekey="symbolFeature-0" transform="matrix(0.8000023193426616,0,0,0.8000023193426616,115.9998862337748,106.0007996105488)" fill="#ffe98a"><path xmlns="http://www.w3.org/2000/svg" d="M99.975,16.102C99.452,8.53,91.986,3.43,78.041,1.541c-4.823,2.326-10.016,5.583-13.337,9.173  c-0.492,0.532-1.083,0.622-1.6,0.448c-1.04-0.349-1.777-1.771-0.79-2.838l0,0c2.574-2.782,5.398-5.403,8.507-7.6  c0,0-2.343-0.725-4.802-0.725c-2.627,0-4.696,0.725-4.696,0.725c-5.277,2.344-11.367,5.958-15.098,9.99  c-0.492,0.532-1.083,0.622-1.6,0.448c-1.04-0.35-1.777-1.771-0.79-2.838c2.575-2.782,5.398-5.403,8.506-7.6  C52.342,0.725,50,0,47.54,0c-2.626,0-4.696,0.725-4.696,0.725c-5.277,2.344-11.367,5.958-15.098,9.99  c-1.483,1.603-3.868-0.793-2.39-2.39c2.57-2.777,5.388-5.393,8.489-7.587C12.259,0.997,0.681,6.605,0.025,16.102  c-0.31,4.49,2.11,10.051,16.907,10.051h60.611h5.525C97.865,26.152,100.285,20.592,99.975,16.102z"></path></g><g id="SvgjsG4555" featurekey="nameFeature-0" transform="matrix(0.9128878547581158,0,0,0.9128878547581158,54.07452540062817,138.76362165021862)" fill="#ffffff"><path d="M15.4 27.36 c1.08 1.48 1.4 3.16 1.32 3.88 c0.04 0.68 0.08 2.64 -0.84 4.44 c-0.92 1.84 -2.68 2.8 -3.24 2.96 c-1.16 0.36 -1.72 0.44 -3.28 1.04 c-0.72 0.28 -2.24 0.4 -3.32 0.24 c-1.12 -0.08 -2.2 -0.12 -2.56 -0.16 c-0.84 0 -1.36 -0.52 -1.36 -1.24 c-0.04 -1.36 -0.08 -1.56 2.08 -1.4 c0.48 0.04 1.04 0.04 1.76 0.04 c-0.2 -0.6 -0.28 -1.28 -0.32 -1.88 c-0.08 -1.88 -0.08 -4.64 -0.04 -6.08 c0.04 -0.76 0.04 -1.6 0.04 -2.44 c-0.88 -0.04 -1.68 -0.08 -2 -0.12 c-0.92 0 -1.52 -0.52 -1.52 -1.24 c-0.04 -1.32 -0.08 -1.56 2.32 -1.4 c0.32 0 0.68 0.04 1.08 0.04 l0.04 0 c0 -1.32 -0.04 -2.96 -0.08 -3.92 c-0.04 -1 0 -2.6 -0.08 -3.6 c-0.04 -0.52 -0.08 -1.72 0.12 -2.68 l-0.24 0 c-1.28 0.16 -2.72 0 -2.72 -1.48 c0.08 -2.4 3.64 -1.48 5.92 -1.4 c1.12 0.12 3.04 0.32 4.76 1.24 c1.76 0.92 2.84 2.72 3.04 3.56 c0.24 0.84 0.72 2.84 0.28 4.92 c-0.12 0.56 -0.24 1.08 -0.48 1.52 c-0.2 0.52 -0.48 0.92 -0.76 1.28 c-0.56 0.72 -1.16 1.16 -1.44 1.32 c-0.36 0.2 -0.64 0.32 -0.96 0.48 c0.88 0.44 1.8 1.12 2.48 2.08 z M8.4 13.559999999999999 c-0.24 0 -0.44 0 -0.64 0.04 c0.28 0.96 0.32 2.28 0.32 3.24 c-0.08 1.72 0.12 5.2 0.08 6.4 c0.04 0.12 0.04 0.32 0.04 0.56 c0.24 0 0.52 0 0.8 0.04 l0.6 -0.12 c0.88 -0.2 1.68 -0.56 2.28 -0.92 c0.56 -0.36 0.96 -0.72 1.16 -0.92 c0.92 -0.8 1 -2.16 0.88 -3.44 c-0.04 -0.68 -0.36 -1.8 -0.96 -2.56 c-0.56 -0.8 -1.44 -1.24 -1.84 -1.6 c-0.44 -0.4 -1.56 -0.72 -2.72 -0.72 z M13.84 33.04 c0.04 -0.28 0 -0.72 0.04 -1.16 c-0.12 -0.44 -0.12 -1 -0.28 -1.44 c-0.24 -0.96 -0.72 -1.6 -0.88 -1.96 c-0.16 -0.52 -0.96 -1.08 -1.88 -1.36 s-1.96 -0.24 -2.44 -0.2 l-0.16 0 l0 1.68 c-0.04 1.08 -0.16 2.16 0 3.68 c0.16 1.36 0.04 2.12 0.08 2.92 c0.04 0.6 -0.12 1.28 -0.36 1.88 c0.32 -0.04 0.6 -0.04 0.92 -0.12 c1.64 -0.28 2.96 -0.96 3.4 -1.28 c1.04 -0.52 1.44 -1.6 1.56 -2.64 z M40.688 37.72 c0.96 0.28 1.76 0.64 1.76 1 c0 0.64 -0.28 1.04 -1.08 1.24 c-0.4 0.08 -0.96 0.16 -1.64 0.16 l-0.24 0 l-0.52 0 c-0.32 -0.04 -0.68 -0.12 -1 -0.28 c-0.64 -0.36 -1.2 -1.04 -1.32 -1.92 c-0.04 -0.16 -0.04 -0.36 -0.08 -0.56 c-0.24 -1.96 -0.8 -5.04 -1.36 -8.12 c-0.32 0.04 -0.68 0.08 -1.04 0.04 c-0.76 -0.04 -1.96 -0.04 -2.8 -0.04 l-0.8 4.04 c-0.28 1.36 -0.6 2.72 -0.84 3.88 c-0.04 0.32 -0.12 0.64 -0.16 0.96 c-0.12 0.52 -0.32 0.92 -0.6 1.28 c-0.56 0.68 -1.32 0.96 -1.84 1.04 c-0.24 0.04 -0.68 0.04 -0.76 0.04 c-0.12 0 -0.24 0 -0.4 0.04 c-0.24 0 -0.48 0 -0.72 -0.04 c-0.44 0 -0.84 -0.04 -1.16 -0.16 c-0.64 -0.24 -0.96 -0.64 -0.92 -1.4 c0 -1.16 1 -1.6 2.88 -1.68 c0.68 -0.04 0.36 -0.04 0.44 0 l0.04 0 c0 -0.04 0 0.08 0.04 -0.08 l0.12 -0.48 c0.36 -1.28 0.76 -2.76 1.2 -4.4 c0.2 -0.8 0.4 -1.84 0.64 -2.96 c-0.32 0 -0.56 0 -0.64 -0.04 c-0.32 -0.04 -2.32 0.12 -2.44 -1.12 s1.04 -1.12 2 -1.16 c0.4 -0.04 0.96 -0.04 1.56 -0.04 l0.48 -2.56 c0.28 -1.44 0.52 -2.88 0.76 -4.08 l0.56 -2.76 c0.2 -0.88 0.36 -1.68 0.48 -2.28 c0.12 -0.36 0.2 -0.88 0.52 -2.24 l0 -0.04 c-0.36 0 -0.72 0 -0.8 -0.04 c-0.2 -0.08 -1.8 0.08 -1.72 -1.2 c0.16 -0.64 0.28 -0.88 0.56 -1 s0.64 -0.08 1 -0.12 l2.68 0 c0.56 0.04 1.96 -0.04 2.4 -0.04 c0.48 0 1.32 0.28 1.36 1.2 c0.04 0.88 -0.84 1.2 -1.72 1.12 l-0.36 0 c0.04 0.16 0.08 0.32 0.08 0.52 l0.36 1.88 c0.2 1.28 0.4 2.48 0.6 3.56 c0.12 0.76 0.24 1.48 0.32 2.08 l0.16 1 c0.2 2.12 0.24 3.24 1.04 6.16 c0.76 2.64 1 7.56 1.4 9.16 c0 0.08 0.04 0.08 0.08 0.08 c0.08 0 0.12 0 0.16 0.08 l0.56 0.08 c0.24 0.08 0.48 0.12 0.72 0.2 z M34.528 26.96 c0.08 0 0.2 0 0.28 0.04 l-0.68 -3.72 c-0.12 -0.72 -0.24 -1.36 -0.32 -1.92 l-0.12 -0.8 l0 -0.16 c0 -0.4 -0.08 -0.84 -0.16 -1.04 c-0.04 -0.08 -0.08 -0.12 -0.12 -0.16 c0 0.04 0 -0.04 -0.08 0.08 l-0.04 0.28 c0 0.16 -0.04 0.24 -0.08 0.44 c0 0.08 -0.04 0.2 -0.08 0.36 l-0.04 0.08 l-0.08 0.4 c-0.12 0.48 -0.2 0.96 -0.32 1.44 c-0.4 1.84 -0.72 3.56 -0.84 4.44 c-0.04 0.08 -0.04 0.16 -0.04 0.28 c0.88 0 2.2 -0.04 2.72 -0.04 z M71.256 13.719999999999999 c0.12 1 -0.08 2.16 -1.56 2.08 c-1.2 -0.08 -1.56 -0.8 -1.56 -1.76 c0 -0.72 0 -0.4 0.08 -0.52 c0.08 -0.08 0.08 -0.2 0 -0.24 c0.12 -0.04 -0.6 -0.04 -1.16 0 c-0.6 0 -1.24 0.04 -1.88 0.08 c-1.28 0.04 -2.44 0.12 -3 0.08 c-0.28 -0.04 -0.72 -0.04 -1.24 -0.04 c0.16 1 0.2 2.2 0.2 3.08 c-0.08 1.8 0.12 5.48 0.12 6.76 l0 0.84 c0.48 0 0.92 0 1.08 0.04 c0.6 0.12 1.48 0.72 1.48 1.4 c0 1.04 -0.72 1.32 -2.52 1.36 l0 2.04 c0 1.12 -0.16 2.28 0 3.92 c0.16 1.4 0.08 2.24 0.08 3.04 c0.04 0.32 0 0.68 -0.08 1 c0.6 0 1.12 0 1.36 0.04 c0.64 0.08 1.6 0.68 1.6 1.36 c0 1.28 -1.12 1.4 -4.24 1.36 c-1.72 0 -4.32 0.4 -4.48 -1.24 c-0.08 -1.16 1.16 -1.44 2.12 -1.44 l1.16 0 c-0.04 -0.32 -0.08 -0.68 -0.12 -0.96 c-0.04 -2 -0.08 -4.92 -0.04 -6.44 c0.04 -0.84 0.04 -1.76 0.04 -2.68 c-1.28 0.04 -2.6 -0.04 -2.68 -1.28 c-0.08 -1.12 1 -1.4 1.88 -1.4 c0.2 0 0.44 0 0.76 -0.04 l-0.12 -4.24 c-0.04 -1 0 -2.72 -0.08 -3.76 c-0.04 -0.56 -0.08 -1.72 0.08 -2.72 c-1.28 0.04 -2.48 0.08 -2.88 0 c-0.88 -0.12 -1.36 -0.28 -2.68 0.04 c-0.2 0.08 -0.48 0.08 -0.72 0.08 l-0.44 0 c-0.2 0 -0.04 0 -0.12 -0.04 c0 -0.04 -0.12 -0.12 -0.2 -0.04 c-0.04 0.04 -0.08 0.04 0.04 0.36 c0.28 0.68 -0.64 1.96 -1.32 1.96 c-0.68 -0.04 -1.08 -0.2 -1.24 -0.56 c-0.08 -0.2 -0.12 -0.44 -0.12 -0.76 c-0.04 -0.16 0 -0.32 0 -0.52 c0.04 -0.24 0.04 -0.52 0.08 -0.8 c0 -0.48 0.08 -0.96 0.44 -1.44 c0.32 -0.52 0.96 -0.92 1.76 -0.92 c1.04 0 2.24 -0.04 3.28 -0.08 c1 -0.04 1.88 -0.04 2.32 0 c1.2 0.16 2.44 -0.08 3.68 -0.12 c1.24 -0.08 3.96 0.52 4.92 0.36 c0.52 -0.08 1.6 -0.2 2.92 -0.28 c0.56 -0.04 1.12 -0.04 1.56 0.12 s0.84 0.52 1.04 0.88 c0.52 0.68 0.36 1.6 0.4 2.04 z M100.104 13.719999999999999 c0.12 1 -0.08 2.16 -1.56 2.08 c-1.2 -0.08 -1.56 -0.8 -1.56 -1.76 c0 -0.72 0 -0.4 0.08 -0.52 c0.08 -0.08 0.08 -0.2 0 -0.24 c0.12 -0.04 -0.6 -0.04 -1.16 0 c-0.6 0 -1.24 0.04 -1.88 0.08 c-1.28 0.04 -2.44 0.12 -3 0.08 c-0.28 -0.04 -0.72 -0.04 -1.24 -0.04 c0.16 1 0.2 2.2 0.2 3.08 c-0.08 1.8 0.12 5.48 0.12 6.76 l0 0.84 c0.48 0 0.92 0 1.08 0.04 c0.6 0.12 1.48 0.72 1.48 1.4 c0 1.04 -0.72 1.32 -2.52 1.36 l0 2.04 c0 1.12 -0.16 2.28 0 3.92 c0.16 1.4 0.08 2.24 0.08 3.04 c0.04 0.32 0 0.68 -0.08 1 c0.6 0 1.12 0 1.36 0.04 c0.64 0.08 1.6 0.68 1.6 1.36 c0 1.28 -1.12 1.4 -4.24 1.36 c-1.72 0 -4.32 0.4 -4.48 -1.24 c-0.08 -1.16 1.16 -1.44 2.12 -1.44 l1.16 0 c-0.04 -0.32 -0.08 -0.68 -0.12 -0.96 c-0.04 -2 -0.08 -4.92 -0.04 -6.44 c0.04 -0.84 0.04 -1.76 0.04 -2.68 c-1.28 0.04 -2.6 -0.04 -2.68 -1.28 c-0.08 -1.12 1 -1.4 1.88 -1.4 c0.2 0 0.44 0 0.76 -0.04 l-0.12 -4.24 c-0.04 -1 0 -2.72 -0.08 -3.76 c-0.04 -0.56 -0.08 -1.72 0.08 -2.72 c-1.28 0.04 -2.48 0.08 -2.88 0 c-0.88 -0.12 -1.36 -0.28 -2.68 0.04 c-0.2 0.08 -0.48 0.08 -0.72 0.08 l-0.44 0 c-0.2 0 -0.04 0 -0.12 -0.04 c0 -0.04 -0.12 -0.12 -0.2 -0.04 c-0.04 0.04 -0.08 0.04 0.04 0.36 c0.28 0.68 -0.64 1.96 -1.32 1.96 c-0.68 -0.04 -1.08 -0.2 -1.24 -0.56 c-0.08 -0.2 -0.12 -0.44 -0.12 -0.76 c-0.04 -0.16 0 -0.32 0 -0.52 c0.04 -0.24 0.04 -0.52 0.08 -0.8 c0 -0.48 0.08 -0.96 0.44 -1.44 c0.32 -0.52 0.96 -0.92 1.76 -0.92 c1.04 0 2.24 -0.04 3.28 -0.08 c1 -0.04 1.88 -0.04 2.32 0 c1.2 0.16 2.44 -0.08 3.68 -0.12 c1.24 -0.08 3.96 0.52 4.92 0.36 c0.52 -0.08 1.6 -0.2 2.92 -0.28 c0.56 -0.04 1.12 -0.04 1.56 0.12 s0.84 0.52 1.04 0.88 c0.52 0.68 0.36 1.6 0.4 2.04 z M122.992 38.44 c0.24 0.36 0.16 1.16 0.16 1.72 c-0.08 0.36 -0.16 0.72 -0.32 1.08 c-0.24 0.68 -0.64 1.24 -1 1.24 c-0.68 0 -1.04 -0.24 -1.24 -0.84 c-0.12 -0.32 -0.16 -0.72 -0.16 -1.24 l0 -0.44 c0 -0.04 0.04 -0.16 -0.04 -0.24 l-0.16 0 c-0.08 -0.04 -0.04 -0.04 -0.24 -0.04 l-0.72 0 l-1.56 0 l-3.48 0 l-1.72 0 l-0.92 0 c-0.48 0 -0.96 0.04 -1.28 -0.12 c-0.72 -0.2 -1.2 -0.92 -1.24 -1.52 c-0.08 -0.6 0 -1.32 0 -1.48 c0.16 -2 -0.08 -4.08 -0.16 -6.16 c-0.04 -2.08 0.56 -6.64 0.36 -8.24 c-0.08 -0.8 -0.16 -2.8 -0.24 -4.8 l-0.12 -2.84 c-0.04 -0.2 -0.04 -0.4 -0.04 -0.56 l-0.04 -0.04 c0 -0.04 -0.04 -0.04 -0.08 0 c-0.04 0 -0.04 0.04 -0.04 0.04 c-0.12 -0.04 -0.48 -0.08 -0.64 -0.12 c-0.28 -0.04 -0.56 -0.12 -0.8 -0.24 c-0.48 -0.28 -0.76 -0.64 -0.72 -1.24 c0 -0.56 0.28 -0.96 0.76 -1.2 c0.24 -0.12 0.52 -0.2 0.8 -0.24 c0.16 -0.04 0.32 -0.08 0.48 -0.08 c0.12 0 0.16 0 0.32 -0.04 l0.52 0 c0.8 0 1.56 0.4 2.04 1.08 c0.24 0.36 0.36 0.72 0.4 1.16 c0 0.4 -0.04 1 -0.04 1.12 c-0.08 0.92 -0.12 1.8 -0.2 2.56 c-0.16 2.8 0.24 8.88 0.12 10.76 c-0.04 0.96 0 3.28 0.04 5.6 c0 1.12 0 2.28 0.04 3.2 l0 0.56 l0 0.04 c-0.04 0 -0.04 0.04 -0.04 0.08 c0.08 0.08 -0.12 0.12 0.76 0.16 c0.64 0 1.4 -0.04 2.48 -0.16 c0.76 -0.12 1.76 -0.08 2.8 0 l1.48 0.12 c0.24 0 0.48 0.04 0.72 0.04 c0.4 0.04 0.76 0.04 1.12 0.08 c1.16 0.04 1.68 0.88 1.84 1.24 z M108.712 13.96 c0.04 0 0.04 0 0 0 z M140.76000000000002 38.08 c0.48 0.32 0.76 0.88 0.68 1.76 c-0.04 0.2 -0.04 0.44 -0.08 0.64 c0 0.2 -0.04 0.24 -0.04 0.36 c-0.04 0.2 -0.12 0.44 -0.2 0.64 c-0.24 0.8 -0.64 1.48 -1 1.48 c-0.68 0 -1.04 -0.28 -1.24 -1 c-0.12 -0.36 -0.16 -0.96 -0.16 -1.4 c0 -0.12 0.04 -0.4 -0.2 -0.36 c0.04 -0.04 -0.72 -0.04 -1.28 -0.04 l-1.96 0 l-2.16 0 l-1.12 0.04 c-0.2 -0.04 -1.12 0.08 -1.64 -0.08 c-0.6 -0.2 -1.12 -0.64 -1.36 -1.16 c-0.12 -0.28 -0.16 -0.56 -0.2 -0.88 l0 -0.84 c0 -0.72 0 -1.36 -0.04 -2 c0 -1.2 0 -2.2 0.04 -2.84 c0.12 -1.84 0 -3.72 -0.08 -5.6 c-0.16 0 -0.32 0 -0.44 0.04 c-0.56 0.08 -2.28 0.2 -2.28 -1.32 c0 -1.24 1.52 -1.4 2.44 -1.36 l0.24 0 c0.04 -2.68 0.52 -7.16 0.36 -8.88 c-0.04 -0.24 -0.04 -0.6 -0.08 -1 c-0.04 -0.68 -0.04 -1.48 0.56 -2.04 c0.28 -0.32 0.68 -0.48 1.12 -0.56 c0.2 -0.04 0.44 -0.04 0.68 -0.04 l0.56 0 c0.6 -0.04 1.2 -0.04 1.76 -0.08 l3.4 -0.12 c0.48 0 0.96 -0.04 1.36 -0.04 c0 -0.32 0.28 -2.6 1.52 -2.36 c0.6 0 1 0.36 1.24 0.96 c0.12 0.32 0.2 0.68 0.28 1.08 c0.04 0.12 0.04 0.56 0.08 1 s-0.04 0.88 -0.2 1.24 c-0.12 0.32 -0.48 0.68 -0.8 0.88 c-0.36 0.2 -0.8 0.32 -1.32 0.28 c-0.4 -0.04 -0.76 -0.04 -1.16 -0.04 l-0.76 -0.04 c-1.04 -0.08 -2 -0.16 -2.84 -0.2 c-0.44 -0.04 -0.92 -0.04 -1.44 -0.08 l-1.4 0 c-0.12 0 -0.24 0.08 -0.24 0.2 l0.04 0.08 l0 0.28 l0.04 0.96 c0.04 2.48 0.12 4.88 0.08 6 c-0.04 0.52 -0.04 1.36 -0.04 2.4 l0.36 0 c0.6 0 2.36 -0.08 2.88 -0.04 c0.56 0 1.16 0.16 1.96 0 c0.72 -0.16 1.12 -0.08 1.56 -0.08 c0.72 -0.08 1.72 0.72 1.72 1.44 c0 0.76 -0.96 1.16 -1.64 1.24 c-1 0.04 -2.48 0.08 -3.24 0.04 c-0.68 -0.04 -1.44 -0.08 -2.08 0 c-0.36 0 -0.92 0.04 -1.48 0.04 c0.04 3.2 0.08 6.8 0 7.88 c-0.08 0.88 -0.12 1.56 -0.16 2.32 l0 0.52 c0.04 0.04 0.04 0.08 0.04 0.12 c0.04 0.04 0.2 0.04 0.24 -0.04 c-0.12 -0.04 0.4 -0.08 0.72 -0.08 l1.2 0 c0.8 0 1.68 0.08 2.48 0.12 l2.28 0.12 c0.44 0.04 1.12 -0.04 1.52 0.04 s0.68 0.24 0.92 0.4 z M170.36800000000002 13.719999999999999 c0.12 1 -0.08 2.16 -1.56 2.08 c-1.2 -0.08 -1.56 -0.8 -1.56 -1.76 c0 -0.72 0 -0.4 0.08 -0.52 c0.08 -0.08 0.08 -0.2 0 -0.24 c0.12 -0.04 -0.6 -0.04 -1.16 0 c-0.6 0 -1.24 0.04 -1.88 0.08 c-1.28 0.04 -2.44 0.12 -3 0.08 c-0.28 -0.04 -0.72 -0.04 -1.24 -0.04 c0.16 1 0.2 2.2 0.2 3.08 c-0.08 1.8 0.12 5.48 0.12 6.76 l0 0.84 c0.48 0 0.92 0 1.08 0.04 c0.6 0.12 1.48 0.72 1.48 1.4 c0 1.04 -0.72 1.32 -2.52 1.36 l0 2.04 c0 1.12 -0.16 2.28 0 3.92 c0.16 1.4 0.08 2.24 0.08 3.04 c0.04 0.32 0 0.68 -0.08 1 c0.6 0 1.12 0 1.36 0.04 c0.64 0.08 1.6 0.68 1.6 1.36 c0 1.28 -1.12 1.4 -4.24 1.36 c-1.72 0 -4.32 0.4 -4.48 -1.24 c-0.08 -1.16 1.16 -1.44 2.12 -1.44 l1.16 0 c-0.04 -0.32 -0.08 -0.68 -0.12 -0.96 c-0.04 -2 -0.08 -4.92 -0.04 -6.44 c0.04 -0.84 0.04 -1.76 0.04 -2.68 c-1.28 0.04 -2.6 -0.04 -2.68 -1.28 c-0.08 -1.12 1 -1.4 1.88 -1.4 c0.2 0 0.44 0 0.76 -0.04 l-0.12 -4.24 c-0.04 -1 0 -2.72 -0.08 -3.76 c-0.04 -0.56 -0.08 -1.72 0.08 -2.72 c-1.28 0.04 -2.48 0.08 -2.88 0 c-0.88 -0.12 -1.36 -0.28 -2.68 0.04 c-0.2 0.08 -0.48 0.08 -0.72 0.08 l-0.44 0 c-0.2 0 -0.04 0 -0.12 -0.04 c0 -0.04 -0.12 -0.12 -0.2 -0.04 c-0.04 0.04 -0.08 0.04 0.04 0.36 c0.28 0.68 -0.64 1.96 -1.32 1.96 c-0.68 -0.04 -1.08 -0.2 -1.24 -0.56 c-0.08 -0.2 -0.12 -0.44 -0.12 -0.76 c-0.04 -0.16 0 -0.32 0 -0.52 c0.04 -0.24 0.04 -0.52 0.08 -0.8 c0 -0.48 0.08 -0.96 0.44 -1.44 c0.32 -0.52 0.96 -0.92 1.76 -0.92 c1.04 0 2.24 -0.04 3.28 -0.08 c1 -0.04 1.88 -0.04 2.32 0 c1.2 0.16 2.44 -0.08 3.68 -0.12 c1.24 -0.08 3.96 0.52 4.92 0.36 c0.52 -0.08 1.6 -0.2 2.92 -0.28 c0.56 -0.04 1.12 -0.04 1.56 0.12 s0.84 0.52 1.04 0.88 c0.52 0.68 0.36 1.6 0.4 2.04 z M199.21600000000004 13.719999999999999 c0.12 1 -0.08 2.16 -1.56 2.08 c-1.2 -0.08 -1.56 -0.8 -1.56 -1.76 c0 -0.72 0 -0.4 0.08 -0.52 c0.08 -0.08 0.08 -0.2 0 -0.24 c0.12 -0.04 -0.6 -0.04 -1.16 0 c-0.6 0 -1.24 0.04 -1.88 0.08 c-1.28 0.04 -2.44 0.12 -3 0.08 c-0.28 -0.04 -0.72 -0.04 -1.24 -0.04 c0.16 1 0.2 2.2 0.2 3.08 c-0.08 1.8 0.12 5.48 0.12 6.76 l0 0.84 c0.48 0 0.92 0 1.08 0.04 c0.6 0.12 1.48 0.72 1.48 1.4 c0 1.04 -0.72 1.32 -2.52 1.36 l0 2.04 c0 1.12 -0.16 2.28 0 3.92 c0.16 1.4 0.08 2.24 0.08 3.04 c0.04 0.32 0 0.68 -0.08 1 c0.6 0 1.12 0 1.36 0.04 c0.64 0.08 1.6 0.68 1.6 1.36 c0 1.28 -1.12 1.4 -4.24 1.36 c-1.72 0 -4.32 0.4 -4.48 -1.24 c-0.08 -1.16 1.16 -1.44 2.12 -1.44 l1.16 0 c-0.04 -0.32 -0.08 -0.68 -0.12 -0.96 c-0.04 -2 -0.08 -4.92 -0.04 -6.44 c0.04 -0.84 0.04 -1.76 0.04 -2.68 c-1.28 0.04 -2.6 -0.04 -2.68 -1.28 c-0.08 -1.12 1 -1.4 1.88 -1.4 c0.2 0 0.44 0 0.76 -0.04 l-0.12 -4.24 c-0.04 -1 0 -2.72 -0.08 -3.76 c-0.04 -0.56 -0.08 -1.72 0.08 -2.72 c-1.28 0.04 -2.48 0.08 -2.88 0 c-0.88 -0.12 -1.36 -0.28 -2.68 0.04 c-0.2 0.08 -0.48 0.08 -0.72 0.08 l-0.44 0 c-0.2 0 -0.04 0 -0.12 -0.04 c0 -0.04 -0.12 -0.12 -0.2 -0.04 c-0.04 0.04 -0.08 0.04 0.04 0.36 c0.28 0.68 -0.64 1.96 -1.32 1.96 c-0.68 -0.04 -1.08 -0.2 -1.24 -0.56 c-0.08 -0.2 -0.12 -0.44 -0.12 -0.76 c-0.04 -0.16 0 -0.32 0 -0.52 c0.04 -0.24 0.04 -0.52 0.08 -0.8 c0 -0.48 0.08 -0.96 0.44 -1.44 c0.32 -0.52 0.96 -0.92 1.76 -0.92 c1.04 0 2.24 -0.04 3.28 -0.08 c1 -0.04 1.88 -0.04 2.32 0 c1.2 0.16 2.44 -0.08 3.68 -0.12 c1.24 -0.08 3.96 0.52 4.92 0.36 c0.52 -0.08 1.6 -0.2 2.92 -0.28 c0.56 -0.04 1.12 -0.04 1.56 0.12 s0.84 0.52 1.04 0.88 c0.52 0.68 0.36 1.6 0.4 2.04 z M220.42400000000004 38.08 c0.48 0.32 0.76 0.88 0.68 1.76 c-0.04 0.2 -0.04 0.44 -0.08 0.64 c0 0.2 -0.04 0.24 -0.04 0.36 c-0.04 0.2 -0.12 0.44 -0.2 0.64 c-0.24 0.8 -0.64 1.48 -1 1.48 c-0.68 0 -1.04 -0.28 -1.24 -1 c-0.12 -0.36 -0.16 -0.96 -0.16 -1.4 c0 -0.12 0.04 -0.4 -0.2 -0.36 c0.04 -0.04 -0.72 -0.04 -1.28 -0.04 l-1.96 0 l-2.16 0 l-1.12 0.04 c-0.2 -0.04 -1.12 0.08 -1.64 -0.08 c-0.6 -0.2 -1.12 -0.64 -1.36 -1.16 c-0.12 -0.28 -0.16 -0.56 -0.2 -0.88 l0 -0.84 c0 -0.72 0 -1.36 -0.04 -2 c0 -1.2 0 -2.2 0.04 -2.84 c0.12 -1.84 0 -3.72 -0.08 -5.6 c-0.16 0 -0.32 0 -0.44 0.04 c-0.56 0.08 -2.28 0.2 -2.28 -1.32 c0 -1.24 1.52 -1.4 2.44 -1.36 l0.24 0 c0.04 -2.68 0.52 -7.16 0.36 -8.88 c-0.04 -0.24 -0.04 -0.6 -0.08 -1 c-0.04 -0.68 -0.04 -1.48 0.56 -2.04 c0.28 -0.32 0.68 -0.48 1.12 -0.56 c0.2 -0.04 0.44 -0.04 0.68 -0.04 l0.56 0 c0.6 -0.04 1.2 -0.04 1.76 -0.08 l3.4 -0.12 c0.48 0 0.96 -0.04 1.36 -0.04 c0 -0.32 0.28 -2.6 1.52 -2.36 c0.6 0 1 0.36 1.24 0.96 c0.12 0.32 0.2 0.68 0.28 1.08 c0.04 0.12 0.04 0.56 0.08 1 s-0.04 0.88 -0.2 1.24 c-0.12 0.32 -0.48 0.68 -0.8 0.88 c-0.36 0.2 -0.8 0.32 -1.32 0.28 c-0.4 -0.04 -0.76 -0.04 -1.16 -0.04 l-0.76 -0.04 c-1.04 -0.08 -2 -0.16 -2.84 -0.2 c-0.44 -0.04 -0.92 -0.04 -1.44 -0.08 l-1.4 0 c-0.12 0 -0.24 0.08 -0.24 0.2 l0.04 0.08 l0 0.28 l0.04 0.96 c0.04 2.48 0.12 4.88 0.08 6 c-0.04 0.52 -0.04 1.36 -0.04 2.4 l0.36 0 c0.6 0 2.36 -0.08 2.88 -0.04 c0.56 0 1.16 0.16 1.96 0 c0.72 -0.16 1.12 -0.08 1.56 -0.08 c0.72 -0.08 1.72 0.72 1.72 1.44 c0 0.76 -0.96 1.16 -1.64 1.24 c-1 0.04 -2.48 0.08 -3.24 0.04 c-0.68 -0.04 -1.44 -0.08 -2.08 0 c-0.36 0 -0.92 0.04 -1.48 0.04 c0.04 3.2 0.08 6.8 0 7.88 c-0.08 0.88 -0.12 1.56 -0.16 2.32 l0 0.52 c0.04 0.04 0.04 0.08 0.04 0.12 c0.04 0.04 0.2 0.04 0.24 -0.04 c-0.12 -0.04 0.4 -0.08 0.72 -0.08 l1.2 0 c0.8 0 1.68 0.08 2.48 0.12 l2.28 0.12 c0.44 0.04 1.12 -0.04 1.52 0.04 s0.68 0.24 0.92 0.4 z"></path></g><g id="SvgjsG4556" featurekey="sloganFeature-0" transform="matrix(0.516397623923021,0,0,0.516397623923021,63.029172469487094,184.8603027321836)" fill="#ffe98a"><path d="M9.42 10.22 c0 0.78 -0.12 1.46 -0.4 1.96 c0.76 0.72 1.08 1.88 1.08 3.5 c0 1.72 -0.36 2.94 -1.18 3.58 c-0.78 0.62 -1.88 0.74 -2.98 0.74 l-3.9 0 c-0.1 0 -0.16 -0.08 -0.16 -0.18 l0 -12.84 c0 -0.1 0.06 -0.18 0.16 -0.18 l3.2 0 c1.08 0 2.2 0.08 2.96 0.58 c0.94 0.6 1.22 1.68 1.22 2.84 z M4.52 9.42 l0 1.8 l1.22 0 c0.64 0 0.98 -0.2 0.98 -0.9 s-0.52 -0.9 -1.4 -0.9 l-0.8 0 z M5.28 17.38 c1.1 0 2.14 -0.48 2.14 -1.76 c0 -0.96 -0.68 -1.72 -1.7 -1.72 l-1.2 0 l0 3.48 l0.76 0 z M3.04 8.06 l0 10.66 c0 0.1 0.08 0.14 0.16 0.14 l2.68 0 c1.94 0 3.1 -0.98 3.1 -3.08 c0 -1.5 -0.34 -3.06 -1.9 -3.5 c0.92 -0.3 1.16 -1.22 1.16 -2.2 c0 -1.6 -0.9 -2.18 -2.52 -2.18 l-2.52 0 c-0.12 0 -0.16 0.06 -0.16 0.16 z M5.58 18.62 l-2.28 0 l0 -6.16 l2.82 0 c2.06 0 2.58 1.34 2.58 3.32 c0 2.02 -1.1 2.92 -3.12 2.84 z M8 10.08 c0 1.62 -0.68 2.12 -2.32 2.12 l-2.38 0 l0 -4.04 l2.42 0 c1.18 0 2.28 0.22 2.28 1.92 z M18.876 6.92 c0.02 -0.06 0.06 -0.12 0.14 -0.12 l2.48 0 c0.08 0 0.12 0.06 0.14 0.12 l3.46 12.86 c0.02 0.12 -0.06 0.22 -0.18 0.22 l-2.28 0 c-0.06 0 -0.12 -0.04 -0.14 -0.12 l-0.78 -2.8 l-2.92 0 l-0.76 2.8 c-0.02 0.08 -0.06 0.12 -0.14 0.12 l-2.3 0 c-0.12 0 -0.2 -0.1 -0.18 -0.22 z M19.436 14.6 l1.66 0 l-0.86 -3.02 z M22.516 15.780000000000001 l0.92 3 c0.04 0.12 0.26 0.1 0.2 -0.06 l-3.2 -10.64 c-0.06 -0.26 -0.4 -0.28 -0.46 0 l-3.1 10.64 c-0.06 0.14 0.16 0.2 0.22 0.08 l0.88 -3.02 l4.54 0 z M18.036 15.52 l2.18 -7.36 l2.22 7.36 l-4.4 0 z M32.952 9.3 l-2.84 0 c-0.1 0 -0.18 -0.08 -0.18 -0.18 l0 -2.14 c0 -0.1 0.08 -0.18 0.18 -0.18 l8.34 0 c0.1 0 0.18 0.08 0.18 0.18 l0 2.14 c0 0.1 -0.08 0.18 -0.18 0.18 l-2.84 0 l0 10.52 c0 0.1 -0.08 0.18 -0.18 0.18 l-2.3 0 c-0.1 0 -0.18 -0.08 -0.18 -0.18 l0 -10.52 z M37.232 7.9 l-6.04 0 c-0.14 0 -0.14 0.26 0 0.26 l2.96 0 l0 10.6 c0 0.14 0.26 0.14 0.26 0 l0 -10.6 l2.82 0 c0.2 0 0.18 -0.26 0 -0.26 z M46.488 9.3 l-2.84 0 c-0.1 0 -0.18 -0.08 -0.18 -0.18 l0 -2.14 c0 -0.1 0.08 -0.18 0.18 -0.18 l8.34 0 c0.1 0 0.18 0.08 0.18 0.18 l0 2.14 c0 0.1 -0.08 0.18 -0.18 0.18 l-2.84 0 l0 10.52 c0 0.1 -0.08 0.18 -0.18 0.18 l-2.3 0 c-0.1 0 -0.18 -0.08 -0.18 -0.18 l0 -10.52 z M50.768 7.9 l-6.04 0 c-0.14 0 -0.14 0.26 0 0.26 l2.96 0 l0 10.6 c0 0.14 0.26 0.14 0.26 0 l0 -10.6 l2.82 0 c0.2 0 0.18 -0.26 0 -0.26 z M60.404 6.800000000000001 c0.1 0 0.18 0.08 0.18 0.18 l0 10.5 l4.32 0 c0.1 0 0.18 0.08 0.18 0.18 l0 2.16 c0 0.1 -0.08 0.18 -0.18 0.18 l-6.78 0 c-0.1 0 -0.16 -0.08 -0.16 -0.18 l0 -12.84 c0 -0.1 0.06 -0.18 0.16 -0.18 l2.28 0 z M59.164 8.02 l0 10.76 c0 0.04 0.04 0.1 0.12 0.1 l4.62 0 c0.16 0 0.16 -0.26 0 -0.26 l-4.52 0 l0 -10.6 c0 -0.14 -0.22 -0.16 -0.22 0 z M71.04 20 c-0.1 0 -0.16 -0.08 -0.16 -0.18 l0 -12.84 c0 -0.1 0.06 -0.18 0.16 -0.18 l6.8 0 c0.1 0 0.18 0.08 0.18 0.18 l0 2.14 c0 0.1 -0.08 0.18 -0.18 0.18 l-4.32 0 l0 2.72 l3.36 0 c0.1 0 0.16 0.08 0.16 0.18 l0 2.18 c0 0.1 -0.06 0.18 -0.16 0.18 l-3.36 0 l0 2.94 l4.32 0 c0.1 0 0.18 0.08 0.18 0.18 l0 2.14 c0 0.1 -0.08 0.18 -0.18 0.18 l-6.8 0 z M72.04 8.06 l0 10.64 c0 0.12 0.08 0.16 0.16 0.16 l4.6 0 c0.18 0 0.14 -0.24 0 -0.24 l-4.5 0 l0 -5.22 l3.68 0 c0.12 0 0.12 -0.28 0 -0.28 l-3.68 0 l0 -4.96 l4.5 0 c0.14 0 0.18 -0.26 0 -0.26 l-4.6 0 c-0.08 0 -0.16 0.06 -0.16 0.16 z M88.896 11.9 c1.52 0.72 3.5 1.86 3.5 3.92 c0 0.6 -0.1 1.76 -0.76 2.74 c-0.74 1.1 -1.9 1.64 -3.5 1.64 c-1.7 0 -3.68 -0.82 -4.3 -2.68 c-0.02 -0.06 0 -0.12 0.06 -0.16 l1.84 -1.58 c0.08 -0.06 0.2 -0.06 0.26 0.04 c0.04 0.1 0.12 0.26 0.22 0.46 c0.3 0.62 1.02 1.24 1.82 1.24 c0.62 0 1.46 -0.34 1.46 -1.3 c0 -0.92 -1.26 -1.44 -2.04 -1.74 c-0.9 -0.36 -1.82 -0.82 -2.6 -1.5 c-0.82 -0.76 -1.22 -1.6 -1.22 -2.6 c0 -2.5 2.3 -3.76 4.48 -3.76 c1.72 0 3 0.9 3.84 2.68 c0.04 0.08 0 0.18 -0.06 0.22 l-1.78 1.24 c-0.08 0.04 -0.12 0.04 -0.2 -0.06 c-0.68 -0.98 -1.28 -1.44 -2.08 -1.44 c-0.42 0 -1.4 0.16 -1.4 0.9 c0 0.9 1.66 1.36 2.46 1.74 z M85.256 17.42 c0.5 1 1.88 1.58 3 1.58 c1.46 0 2.64 -1 2.8 -2.52 c0.2 -1.86 -1.26 -2.66 -2.7 -3.38 l-0.64 -0.28 c-1.48 -0.66 -2.56 -1.16 -2.56 -2.54 c0 -1.52 1.4 -2.22 2.78 -2.22 c1.26 0 1.92 0.74 2.26 1.2 c0.12 0.16 0.32 0.02 0.2 -0.14 c-0.34 -0.42 -1.06 -1.3 -2.46 -1.3 c-1.58 0 -3.02 0.78 -3.02 2.46 c0 1.5 1.2 2.08 2.72 2.78 l0.62 0.3 c1.98 0.94 2.7 1.82 2.54 3.1 c-0.3 2.04 -1.86 2.3 -2.54 2.3 c-1.5 0 -2.5 -0.9 -2.8 -1.46 c-0.1 -0.1 -0.24 0 -0.2 0.12 z M104.252 12 l0 -5.02 c0 -0.1 0.08 -0.18 0.18 -0.18 l2.28 0 c0.1 0 0.18 0.08 0.18 0.18 l0 12.84 c0 0.1 -0.08 0.18 -0.18 0.18 l-2.28 0 c-0.1 0 -0.18 -0.08 -0.18 -0.18 l0 -5.32 l-3.24 0 l0 5.32 c0 0.1 -0.08 0.18 -0.18 0.18 l-2.28 0 c-0.1 0 -0.16 -0.08 -0.16 -0.18 l0 -12.84 c0 -0.1 0.06 -0.18 0.16 -0.18 l2.28 0 c0.1 0 0.18 0.08 0.18 0.18 l0 5.02 l3.24 0 z M99.552 18.76 c0 0.16 0.26 0.14 0.26 0 l0 -5.36 l5.62 0 l0 5.36 c0 0.14 0.22 0.16 0.22 0 l0 -10.76 c0 -0.14 -0.22 -0.18 -0.22 0 l0 5.12 l-5.62 0 l0 -5.12 c0 -0.14 -0.26 -0.14 -0.26 0 l0 10.76 z M113.78800000000001 20 c-0.1 0 -0.16 -0.08 -0.16 -0.18 l0 -12.84 c0 -0.1 0.06 -0.18 0.16 -0.18 l2.28 0 c0.1 0 0.18 0.08 0.18 0.18 l0 12.84 c0 0.1 -0.08 0.18 -0.18 0.18 l-2.28 0 z M114.828 8 l0 10.78 c0 0.18 0.22 0.18 0.22 0 l0 -10.78 c0 -0.14 -0.22 -0.14 -0.22 0 z M127.22400000000002 6.800000000000001 c2.22 0 3.56 1.26 3.56 3.6 l0 2.52 c0 2.14 -1.32 3.58 -3.56 3.58 l-1.68 0 l0 3.32 c0 0.1 -0.08 0.18 -0.18 0.18 l-2.3 0 c-0.08 0 -0.14 -0.08 -0.14 -0.18 l0 -12.84 c0 -0.1 0.06 -0.18 0.14 -0.18 l4.16 0 z M128.16400000000002 12.32 l0 -1.32 c0 -1.38 -0.64 -1.52 -2.04 -1.52 l-0.58 0 l0 4.4 l0.58 0 c1.1 0 2.04 -0.2 2.04 -1.56 z M129.584 12.780000000000001 l0 -2.5 c0 -2.2 -1.7 -2.38 -2.62 -2.38 l-2.7 0 c-0.04 0 -0.12 0.06 -0.12 0.12 l0 10.76 c0 0.14 0.24 0.14 0.24 0 l0 -3.4 l2.4 0 c1.76 0 2.8 -0.62 2.8 -2.6 z M124.38400000000001 8.16 l2.58 0 c2.22 0 2.36 1.46 2.36 2.12 l0 2.5 c0 2.04 -1.28 2.32 -2.54 2.32 l-2.4 0 l0 -6.94 z M161.276 6.800000000000001 c0.12 0 0.2 0.1 0.16 0.22 l-3.44 12.86 c-0.02 0.08 -0.1 0.12 -0.18 0.12 l-2.2 0 c-0.08 0 -0.14 -0.04 -0.18 -0.12 l-1.36 -5.06 l-1.84 5.08 c-0.02 0.06 -0.06 0.1 -0.14 0.1 l-2.12 0 c-0.08 0 -0.14 -0.04 -0.16 -0.12 l-3.42 -12.88 c-0.02 -0.1 0.04 -0.2 0.18 -0.2 l2.3 0 c0.06 0 0.12 0.06 0.14 0.12 l2.22 8.48 l1.66 -5.02 l-0.92 -3.36 c-0.04 -0.12 0.06 -0.22 0.16 -0.22 l2.48 0 c0.08 0 0.12 0.02 0.16 0.12 l1.84 8.16 l2.2 -8.16 c0.02 -0.06 0.08 -0.12 0.16 -0.12 l2.3 0 z M154.236 10.58 l-3.02 8.04 l-3.24 -10.66 c-0.04 -0.14 -0.28 -0.08 -0.24 0.06 l3.24 10.68 c0.06 0.28 0.4 0.26 0.5 0 l2.86 -7.72 l2.1 7.7 c0.08 0.3 0.44 0.3 0.5 0.02 l3.18 -10.68 c0.06 -0.14 -0.2 -0.22 -0.24 -0.06 l-3.16 10.66 l-2.92 -10.66 c-0.02 -0.14 -0.28 -0.1 -0.22 0.06 z M167.712 20 c-0.1 0 -0.16 -0.08 -0.16 -0.18 l0 -12.84 c0 -0.1 0.06 -0.18 0.16 -0.18 l2.28 0 c0.1 0 0.18 0.08 0.18 0.18 l0 12.84 c0 0.1 -0.08 0.18 -0.18 0.18 l-2.28 0 z M168.752 8 l0 10.78 c0 0.18 0.22 0.18 0.22 0 l0 -10.78 c0 -0.14 -0.22 -0.14 -0.22 0 z M178.908 9.3 l-2.84 0 c-0.1 0 -0.18 -0.08 -0.18 -0.18 l0 -2.14 c0 -0.1 0.08 -0.18 0.18 -0.18 l8.34 0 c0.1 0 0.18 0.08 0.18 0.18 l0 2.14 c0 0.1 -0.08 0.18 -0.18 0.18 l-2.84 0 l0 10.52 c0 0.1 -0.08 0.18 -0.18 0.18 l-2.3 0 c-0.1 0 -0.18 -0.08 -0.18 -0.18 l0 -10.52 z M183.188 7.9 l-6.04 0 c-0.14 0 -0.14 0.26 0 0.26 l2.96 0 l0 10.6 c0 0.14 0.26 0.14 0.26 0 l0 -10.6 l2.82 0 c0.2 0 0.18 -0.26 0 -0.26 z M196.244 12 l0 -5.02 c0 -0.1 0.08 -0.18 0.18 -0.18 l2.28 0 c0.1 0 0.18 0.08 0.18 0.18 l0 12.84 c0 0.1 -0.08 0.18 -0.18 0.18 l-2.28 0 c-0.1 0 -0.18 -0.08 -0.18 -0.18 l0 -5.32 l-3.24 0 l0 5.32 c0 0.1 -0.08 0.18 -0.18 0.18 l-2.28 0 c-0.1 0 -0.16 -0.08 -0.16 -0.18 l0 -12.84 c0 -0.1 0.06 -0.18 0.16 -0.18 l2.28 0 c0.1 0 0.18 0.08 0.18 0.18 l0 5.02 l3.24 0 z M191.54399999999998 18.76 c0 0.16 0.26 0.14 0.26 0 l0 -5.36 l5.62 0 l0 5.36 c0 0.14 0.22 0.16 0.22 0 l0 -10.76 c0 -0.14 -0.22 -0.18 -0.22 0 l0 5.12 l-5.62 0 l0 -5.12 c0 -0.14 -0.26 -0.14 -0.26 0 l0 10.76 z M216.25599999999997 20 c-0.1 0 -0.16 -0.08 -0.16 -0.18 l0 -12.84 c0 -0.1 0.06 -0.18 0.16 -0.18 l6.8 0 c0.1 0 0.18 0.08 0.18 0.18 l0 2.14 c0 0.1 -0.08 0.18 -0.18 0.18 l-4.32 0 l0 2.72 l3.36 0 c0.1 0 0.16 0.08 0.16 0.18 l0 2.18 c0 0.1 -0.06 0.18 -0.16 0.18 l-3.36 0 l0 2.94 l4.32 0 c0.1 0 0.18 0.08 0.18 0.18 l0 2.14 c0 0.1 -0.08 0.18 -0.18 0.18 l-6.8 0 z M217.25599999999997 8.06 l0 10.64 c0 0.12 0.08 0.16 0.16 0.16 l4.6 0 c0.18 0 0.14 -0.24 0 -0.24 l-4.5 0 l0 -5.22 l3.68 0 c0.12 0 0.12 -0.28 0 -0.28 l-3.68 0 l0 -4.96 l4.5 0 c0.14 0 0.18 -0.26 0 -0.26 l-4.6 0 c-0.08 0 -0.16 0.06 -0.16 0.16 z M235.17199999999997 6.800000000000001 l2.28 0 c0.12 0 0.2 0.12 0.16 0.26 l-2.6 5.86 l3.14 6.84 c0.06 0.12 -0.02 0.24 -0.14 0.24 l-2.26 0 c-0.08 0 -0.12 -0.02 -0.14 -0.1 l-2.2 -4.68 l-2.2 4.68 c-0.06 0.1 -0.08 0.1 -0.16 0.1 l-2.28 0 c-0.12 0 -0.2 -0.12 -0.14 -0.24 l3.12 -6.84 l-2.58 -5.86 c-0.04 -0.14 0.04 -0.26 0.16 -0.26 l2.32 0 c0.08 0 0.12 0.06 0.16 0.1 l1.6 3.56 l1.62 -3.56 c0.02 -0.04 0.08 -0.1 0.14 -0.1 z M236.35199999999998 18.82 c0.06 0.1 0.28 0.06 0.2 -0.12 l-3 -5.84 l2.42 -4.76 c0.06 -0.12 -0.06 -0.28 -0.2 -0.14 l-2.36 4.64 l-2.38 -4.64 c-0.08 -0.14 -0.36 -0.04 -0.26 0.14 l2.48 4.76 l-3.02 5.84 c-0.06 0.18 0.18 0.22 0.22 0.12 l2.96 -5.7 z M245.98799999999997 9.3 l-2.84 0 c-0.1 0 -0.18 -0.08 -0.18 -0.18 l0 -2.14 c0 -0.1 0.08 -0.18 0.18 -0.18 l8.34 0 c0.1 0 0.18 0.08 0.18 0.18 l0 2.14 c0 0.1 -0.08 0.18 -0.18 0.18 l-2.84 0 l0 10.52 c0 0.1 -0.08 0.18 -0.18 0.18 l-2.3 0 c-0.1 0 -0.18 -0.08 -0.18 -0.18 l0 -10.52 z M250.26799999999997 7.9 l-6.04 0 c-0.14 0 -0.14 0.26 0 0.26 l2.96 0 l0 10.6 c0 0.14 0.26 0.14 0.26 0 l0 -10.6 l2.82 0 c0.2 0 0.18 -0.26 0 -0.26 z M264.964 14.780000000000001 c-0.28 0.58 -0.68 1.02 -1.24 1.28 l1.68 3.7 c0.06 0.12 -0.02 0.24 -0.14 0.24 l-2.46 0 c-0.08 0 -0.12 -0.04 -0.14 -0.1 l-1.56 -3.4 l-1.02 0 l0 3.32 c0 0.1 -0.08 0.18 -0.18 0.18 l-2.3 0 c-0.08 0 -0.14 -0.08 -0.14 -0.18 l0 -12.84 c0 -0.1 0.06 -0.18 0.14 -0.18 l4.16 0 c2.22 0 3.56 1.26 3.56 3.6 l0 2.52 c0 0.7 -0.12 1.36 -0.36 1.86 z M262.70399999999995 12.3 l0 -1.3 c0 -1.4 -0.52 -1.54 -2.04 -1.54 l-0.58 0 l0 4.42 l0.58 0 c1.26 0 2 -0.02 2.04 -1.58 z M258.924 18.78 l0 -3.42 l2.88 0 l1.68 3.46 c0.04 0.1 0.28 0.06 0.22 -0.12 l-1.68 -3.4 c1.56 -0.22 2.1 -1.04 2.1 -2.52 l0 -2.5 c0 -2.2 -2 -2.38 -2.62 -2.38 l-2.7 0 c-0.04 0 -0.12 0.06 -0.12 0.12 l0 10.76 c0 0.14 0.24 0.14 0.24 0 z M263.88399999999996 10.28 l0 2.5 c0 2.04 -1.3 2.32 -2.56 2.32 l-2.4 0 l0 -6.94 l2.58 0 c2.16 0 2.38 1.46 2.38 2.12 z M274.35999999999996 6.92 c0.02 -0.06 0.06 -0.12 0.14 -0.12 l2.48 0 c0.08 0 0.12 0.06 0.14 0.12 l3.46 12.86 c0.02 0.12 -0.06 0.22 -0.18 0.22 l-2.28 0 c-0.06 0 -0.12 -0.04 -0.14 -0.12 l-0.78 -2.8 l-2.92 0 l-0.76 2.8 c-0.02 0.08 -0.06 0.12 -0.14 0.12 l-2.3 0 c-0.12 0 -0.2 -0.1 -0.18 -0.22 z M274.91999999999996 14.6 l1.66 0 l-0.86 -3.02 z M277.99999999999994 15.780000000000001 l0.92 3 c0.04 0.12 0.26 0.1 0.2 -0.06 l-3.2 -10.64 c-0.06 -0.26 -0.4 -0.28 -0.46 0 l-3.1 10.64 c-0.06 0.14 0.16 0.2 0.22 0.08 l0.88 -3.02 l4.54 0 z M273.52 15.52 l2.18 -7.36 l2.22 7.36 l-4.4 0 z M296.952 6.08 l1.16 0 c0.1 0 0.2 0.08 0.18 0.24 l-0.24 1.7 c-0.04 0.14 -0.06 0.18 -0.16 0.18 l-0.72 0 c-0.1 0 -0.16 -0.04 -0.18 -0.18 l-0.24 -1.72 c-0.04 -0.12 0.06 -0.22 0.2 -0.22 z M297.652 7.5 l0 -0.84 c0 -0.18 -0.24 -0.2 -0.24 0 l0 0.84 c0 0.18 0.24 0.2 0.24 0 z M308.688 6.800000000000001 c2.22 0 3.56 1.26 3.56 3.6 l0 2.52 c0 2.14 -1.32 3.58 -3.56 3.58 l-1.68 0 l0 3.32 c0 0.1 -0.08 0.18 -0.18 0.18 l-2.3 0 c-0.08 0 -0.14 -0.08 -0.14 -0.18 l0 -12.84 c0 -0.1 0.06 -0.18 0.14 -0.18 l4.16 0 z M309.628 12.32 l0 -1.32 c0 -1.38 -0.64 -1.52 -2.04 -1.52 l-0.58 0 l0 4.4 l0.58 0 c1.1 0 2.04 -0.2 2.04 -1.56 z M311.048 12.780000000000001 l0 -2.5 c0 -2.2 -1.7 -2.38 -2.62 -2.38 l-2.7 0 c-0.04 0 -0.12 0.06 -0.12 0.12 l0 10.76 c0 0.14 0.24 0.14 0.24 0 l0 -3.4 l2.4 0 c1.76 0 2.8 -0.62 2.8 -2.6 z M305.84799999999996 8.16 l2.58 0 c2.22 0 2.36 1.46 2.36 2.12 l0 2.5 c0 2.04 -1.28 2.32 -2.54 2.32 l-2.4 0 l0 -6.94 z M320.56399999999996 6.92 c0.02 -0.06 0.06 -0.12 0.14 -0.12 l2.48 0 c0.08 0 0.12 0.06 0.14 0.12 l3.46 12.86 c0.02 0.12 -0.06 0.22 -0.18 0.22 l-2.28 0 c-0.06 0 -0.12 -0.04 -0.14 -0.12 l-0.78 -2.8 l-2.92 0 l-0.76 2.8 c-0.02 0.08 -0.06 0.12 -0.14 0.12 l-2.3 0 c-0.12 0 -0.2 -0.1 -0.18 -0.22 z M321.12399999999997 14.6 l1.66 0 l-0.86 -3.02 z M324.20399999999995 15.780000000000001 l0.92 3 c0.04 0.12 0.26 0.1 0.2 -0.06 l-3.2 -10.64 c-0.06 -0.26 -0.4 -0.28 -0.46 0 l-3.1 10.64 c-0.06 0.14 0.16 0.2 0.22 0.08 l0.88 -3.02 l4.54 0 z M319.724 15.52 l2.18 -7.36 l2.22 7.36 l-4.4 0 z M332.74 20 c-0.1 0 -0.16 -0.08 -0.16 -0.18 l0 -12.84 c0 -0.1 0.06 -0.18 0.16 -0.18 l2.28 0 c0.1 0 0.18 0.08 0.18 0.18 l0 12.84 c0 0.1 -0.08 0.18 -0.18 0.18 l-2.28 0 z M333.78 8 l0 10.78 c0 0.18 0.22 0.18 0.22 0 l0 -10.78 c0 -0.14 -0.22 -0.14 -0.22 0 z M347.33599999999996 6.98 c0 -0.1 0.08 -0.18 0.18 -0.18 l2.3 0 c0.1 0 0.18 0.08 0.18 0.18 l0 12.84 c0 0.1 -0.08 0.18 -0.18 0.18 l-2.22 0 c-0.08 0 -0.16 -0.04 -0.18 -0.1 l-2.92 -6.58 l0 6.5 c0 0.1 -0.08 0.18 -0.18 0.18 l-2.28 0 c-0.1 0 -0.16 -0.08 -0.16 -0.18 l0 -12.84 c0 -0.1 0.06 -0.18 0.16 -0.18 l2.36 0 c0.08 0 0.12 0.06 0.14 0.1 l2.8 6.46 l0 -6.38 z M348.77599999999995 18.8 l0 -10.8 c0 -0.14 -0.26 -0.18 -0.26 0 l0 10.28 l-5.22 -10.32 c-0.06 -0.08 -0.22 -0.08 -0.22 0.04 l0 10.78 c0 0.18 0.24 0.18 0.24 0 l0 -10.26 l5.2 10.3 c0.08 0.14 0.26 0.1 0.26 -0.02 z M356.852 6.08 l1.16 0 c0.1 0 0.2 0.08 0.18 0.24 l-0.24 1.7 c-0.04 0.14 -0.06 0.18 -0.16 0.18 l-0.72 0 c-0.1 0 -0.16 -0.04 -0.18 -0.18 l-0.24 -1.72 c-0.04 -0.12 0.06 -0.22 0.2 -0.22 z M357.55199999999996 7.5 l0 -0.84 c0 -0.18 -0.24 -0.2 -0.24 0 l0 0.84 c0 0.18 0.24 0.2 0.24 0 z"></path></g></svg>